<?xml version="1.0" encoding="UTF-8" standalone="no"?>
<!-- Created with Inkscape (http://www.inkscape.org/) -->

<svg
   xmlns:dc="http://purl.org/dc/elements/1.1/"
   xmlns:cc="http://creativecommons.org/ns#"
   xmlns:rdf="http://www.w3.org/1999/02/22-rdf-syntax-ns#"
   xmlns:svg="http://www.w3.org/2000/svg"
   xmlns="http://www.w3.org/2000/svg"
   xmlns:sodipodi="http://sodipodi.sourceforge.net/DTD/sodipodi-0.dtd"
   xmlns:inkscape="http://www.inkscape.org/namespaces/inkscape"
   width="1600"
   height="1600"
   viewBox="0 0 1599.9999 1599.9999"
   id="svg2"
   version="1.1"
   inkscape:version="0.91 r13725"
   sodipodi:docname="New Logo Vector_no_text v2.svg">
  <defs
     id="defs4" />
  <sodipodi:namedview
     id="base"
     pagecolor="#ffffff"
     bordercolor="#666666"
     borderopacity="1.0"
     inkscape:pageopacity="0.0"
     inkscape:pageshadow="2"
     inkscape:zoom="0.29"
     inkscape:cx="446.36653"
     inkscape:cy="827.4883"
     inkscape:document-units="px"
     inkscape:current-layer="layer1"
     showgrid="false"
     units="px"
     inkscape:window-width="1600"
     inkscape:window-height="837"
     inkscape:window-x="-8"
     inkscape:window-y="-8"
     inkscape:window-maximized="1" />
  <metadata
     id="metadata7">
    <rdf:RDF>
      <cc:Work
         rdf:about="">
        <dc:format>image/svg+xml</dc:format>
        <dc:type
           rdf:resource="http://purl.org/dc/dcmitype/StillImage" />
        <dc:title />
      </cc:Work>
    </rdf:RDF>
  </metadata>
  <g
     inkscape:label="Layer 1"
     inkscape:groupmode="layer"
     id="layer1"
     transform="translate(0,547.6374)">
    <path
       sodipodi:nodetypes="ccccc"
       inkscape:connector-curvature="0"
       id="path5447"
       d="m 2376.397,-622.76975 150.6537,-0.32631 0,149.44893 -150.163,1.46839 z"
       style="fill:#ffffff;fill-opacity:1;stroke:none;stroke-width:1;stroke-linecap:round;stroke-linejoin:bevel;stroke-miterlimit:4;stroke-dasharray:none;stroke-opacity:1" />
    <g
       id="g4140"
       transform="matrix(1.020198,0,0,1.0204101,-16.881892,-5.8664245)">
      <path
         inkscape:connector-curvature="0"
         id="path4197"
         d="M 984.6521,252.38048 C 872.8351,237.36122 786.50976,126.29595 800.16655,14.050807 c 0.3025,-119.374667 -1.11341,-239.033317 0.77646,-358.281407 15.99609,-109.27063 122.53179,-196.66065 233.45209,-184.61092 121.3351,1.01902 243.1424,-2.12478 364.2646,1.19898 109.6179,15.57961 194.0502,123.38026 184.4923,233.20315 -0.724,118.30515 1.4494,236.849417 -1.0895,355.004787 -11.1501,114.448563 -122.6397,206.330243 -237.2452,193.329633 -120.0108,-0.76675 -240.274,2.60654 -360.1652,-1.51455 z"
         style="fill:#f5ba00" />
      <path
         style="fill:#64b1ea;fill-opacity:1"
         d="M 203.4372,252.38048 C 91.620139,237.36122 5.2948284,126.29595 18.951629,14.050802 c 0.3025,-119.374672 -1.11342,-239.033312 0.77645,-358.281392 15.9961,-109.27063 122.531771,-196.66066 233.452121,-184.61093 121.3351,1.01902 243.1424,-2.12478 364.2645,1.19898 109.618,15.57961 194.0503,123.38027 184.4924,233.20316 -0.724,118.30514 1.4493,236.849403 -1.0895,355.00477 -11.1501,114.44857 -122.6397,206.33025 -237.2452,193.32964 -120.0108,-0.76675 -240.274,2.60654 -360.1652,-1.51455 z"
         id="path4211"
         inkscape:connector-curvature="0" />
      <path
         inkscape:connector-curvature="0"
         id="path4213"
         d="M 984.65212,1033.3388 C 872.83506,1018.3195 786.50975,907.25425 800.16655,795.0091 c 0.3025,-119.37467 -1.11342,-239.03331 0.77645,-358.28139 15.9961,-109.27063 122.53177,-196.66066 233.4521,-184.61093 121.3351,1.01902 243.1424,-2.12478 364.2645,1.19898 109.618,15.57961 194.0503,123.38027 184.4924,233.20316 -0.724,118.30514 1.4493,236.84941 -1.0895,355.00477 -11.1501,114.44857 -122.6397,206.33021 -237.2452,193.32961 -120.0108,-0.7667 -240.274,2.6066 -360.16518,-1.5145 z"
         style="fill:#64b1ea;fill-opacity:1" />
      <path
         style="fill:#f5ba00"
         d="M 203.43718,1033.3388 C 91.620177,1018.3195 5.2948357,907.25425 18.951627,795.00911 19.254127,675.63444 17.838217,555.97579 19.728087,436.7277 35.724177,327.45707 142.25988,240.06705 253.1802,252.11678 c 121.3351,1.01902 243.1424,-2.12478 364.2646,1.19898 109.6179,15.57961 194.0502,123.38026 184.4923,233.20315 -0.724,118.30515 1.4494,236.84942 -1.0895,355.00479 -11.1501,114.44856 -122.6397,206.3302 -237.2452,193.3296 -120.0108,-0.7667 -240.274,2.6066 -360.16522,-1.5145 z"
         id="path4215"
         inkscape:connector-curvature="0" />
      <path
         inkscape:connector-curvature="0"
         id="path4219"
         d="m 1261.7697,228.23376 a 466.871,466.871 0 0 1 -466.87106,466.871 466.871,466.871 0 0 1 -466.871,-466.871 466.871,466.871 0 0 1 466.871,-466.871 466.871,466.871 0 0 1 466.87106,466.871 z"
         style="fill:#f5ba00;fill-opacity:1;stroke:none;stroke-opacity:1" />
      <path
         inkscape:connector-curvature="0"
         id="path4279"
         d="M 755.18494,907.95743 C 602.34371,895.06006 480.87061,843.12929 368.4201,742.61208 266.9971,651.95221 197.31243,539.94208 165.75986,416.85886 142.90391,327.70024 138.3179,223.40043 153.07836,128.4431 169.18694,24.813 211.28378,-71.127263 277.50006,-155.11863 c 31.19201,-39.56524 74.08619,-82.64406 114.24951,-114.74125 99.36937,-79.4127 207.63215,-122.71666 332.31636,-132.92297 19.89292,-1.62838 84.66008,-1.63853 105.55672,-0.0167 37.71254,2.92725 75.64648,8.39934 89.41341,12.89817 29.37735,9.60008 49.69084,27.99897 65.34054,59.18199 7.76967,15.48162 10.1734,27.33018 10.1137,49.85439 -0.0557,21.17379 -2.22786,33.67879 -8.55173,49.242 -9.35864,23.03156 -30.46088,43.7922 -57.03715,56.11385 -22.55302,10.45629 -41.35678,12.21707 -77.18403,7.2275 -36.45879,-5.07752 -64.68716,-6.52022 -92.00546,-4.70221 -57.68511,3.83888 -104.54004,16.65049 -154.8068,42.32909 -64.79078,33.098076 -127.65485,90.950562 -168.71429,155.264125 -11.64728,18.243696 -28.33089,51.866334 -35.80022,72.148641 -32.56913,88.438494 -34.37622,188.591284 -5.04635,279.686704 12.8021,39.76205 32.05246,78.30675 56.27153,112.67189 30.40507,43.14257 77.49818,89.43869 120.66556,118.6235 83.47783,56.43806 185.02755,81.07618 287.08176,69.65231 79.09131,-8.85352 148.07558,-37.51985 210.18728,-87.34326 16.9766,-13.61781 55.9102,-52.72922 69.7573,-70.07593 39.3002,-49.23188 68.124,-108.5909 79.4335,-163.58453 10.7443,-52.24529 11.7048,-91.33688 3.7192,-151.38281 -3.6639,-27.54999 -2.9779,-51.34733 1.8971,-65.81187 9.9271,-29.45396 31.1848,-55.578459 54.77,-67.309102 9.2521,-4.601791 25.1954,-9.35772 37.3057,-11.128484 14.6671,-2.14463 40.1675,-0.937199 51.4534,2.436316 21.7818,6.510833 45.9937,22.356925 58.4614,38.26152 14.6272,18.65902 19.5398,32.92185 24.7223,71.77522 6.5243,48.91259 5.5335,174.12374 -1.7036,215.2818 -21.3375,121.34847 -79.2356,230.51502 -173.3227,326.79783 -92.5086,94.66748 -197.911,154.15534 -318.90302,179.98473 -47.70316,10.18368 -75.08649,12.85142 -137.17769,13.36405 -28.29289,0.2337 -57.44316,-0.0814 -64.77835,-0.70063 z"
         style="fill:#fefefe" />
    </g>
  </g>
</svg>
