<?xml version="1.0" encoding="UTF-8" standalone="no"?>
<!-- Created with Inkscape (http://www.inkscape.org/) -->

<svg
   xmlns:dc="http://purl.org/dc/elements/1.1/"
   xmlns:cc="http://creativecommons.org/ns#"
   xmlns:rdf="http://www.w3.org/1999/02/22-rdf-syntax-ns#"
   xmlns:svg="http://www.w3.org/2000/svg"
   xmlns="http://www.w3.org/2000/svg"
   xmlns:sodipodi="http://sodipodi.sourceforge.net/DTD/sodipodi-0.dtd"
   xmlns:inkscape="http://www.inkscape.org/namespaces/inkscape"
   width="613.33661"
   height="181.78763"
   viewBox="0 0 613.3366 181.78763"
   id="svg5668"
   version="1.1"
   inkscape:version="0.91 r13725"
   sodipodi:docname="carrum_logo_vector_with_text v3_centered.svg"
   inkscape:export-filename="C:\Users\Georgi\CarrumDrive\Carrum Health Shared Folder\Marketing\Website\Logo\Vector\web optimized\left text\carrum_logo.png"
   inkscape:export-xdpi="24"
   inkscape:export-ydpi="24">
  <defs
     id="defs5670" />
  <sodipodi:namedview
     id="base"
     pagecolor="#ffffff"
     bordercolor="#666666"
     borderopacity="1.0"
     inkscape:pageopacity="0.0"
     inkscape:pageshadow="2"
     inkscape:zoom="1.3293607"
     inkscape:cx="345.96059"
     inkscape:cy="75.015035"
     inkscape:document-units="px"
     inkscape:current-layer="layer1"
     showgrid="false"
     fit-margin-top="10"
     fit-margin-left="10"
     fit-margin-right="10"
     fit-margin-bottom="10"
     units="px"
     inkscape:window-width="1600"
     inkscape:window-height="837"
     inkscape:window-x="-8"
     inkscape:window-y="-8"
     inkscape:window-maximized="1" />
  <metadata
     id="metadata5673">
    <rdf:RDF>
      <cc:Work
         rdf:about="">
        <dc:format>image/svg+xml</dc:format>
        <dc:type
           rdf:resource="http://purl.org/dc/dcmitype/StillImage" />
        <dc:title></dc:title>
      </cc:Work>
    </rdf:RDF>
  </metadata>
  <g
     inkscape:label="Layer 1"
     inkscape:groupmode="layer"
     id="layer1"
     transform="translate(-56.188859,-40.481198)">
    <g
       id="g5054"
       inkscape:export-filename="C:\Users\Georgi\CarrumDrive\Carrum Health Shared Folder\Marketing\Website\Logo\Vector\web optimized\centered text\carrum_logo@2x.png"
       inkscape:export-xdpi="48"
       inkscape:export-ydpi="48">
      <g
         transform="matrix(0.95763298,0,0,0.95783189,-4.2956732,5.8905783)"
         id="g3418">
        <path
           style="fill:#f5ba00"
           d="m 169.46953,130.15504 c -11.1817,-1.50193 -19.81423,-12.60846 -18.44855,-23.83297 0.0302,-11.937469 -0.11134,-23.903334 0.0776,-35.828143 1.59961,-10.927063 12.25318,-19.666066 23.34521,-18.461093 12.13351,0.101902 24.31424,-0.212478 36.42646,0.119898 10.9618,1.557961 19.40503,12.338027 18.44924,23.320316 -0.0724,11.830515 0.14494,23.684941 -0.10895,35.500482 -1.11501,11.44485 -12.26397,20.63302 -23.72453,19.33296 -12.00108,-0.0767 -24.0274,0.26065 -36.01652,-0.15145 z"
           id="path4197"
           inkscape:connector-curvature="0" />
        <path
           inkscape:connector-curvature="0"
           id="path4211"
           d="m 91.348042,130.15504 c -11.18171,-1.50193 -19.81424,-12.60846 -18.44856,-23.83297 0.0303,-11.93747 -0.11134,-23.903334 0.0777,-35.828142 1.59961,-10.927063 12.25318,-19.666067 23.34521,-18.461094 12.133508,0.101902 24.314238,-0.212478 36.426448,0.119898 10.9618,1.557961 19.40503,12.338028 18.44924,23.320317 -0.0724,11.830514 0.14493,23.68494 -0.10895,35.500481 -1.11501,11.44485 -12.26397,20.63302 -23.72452,19.33296 -12.00108,-0.0767 -24.0274,0.26065 -36.016518,-0.15145 z"
           style="fill:#64b1ea;fill-opacity:1" />
        <path
           style="fill:#64b1ea;fill-opacity:1"
           d="m 169.46953,208.25087 c -11.1817,-1.50193 -19.81423,-12.60845 -18.44855,-23.83297 0.0302,-11.93747 -0.11135,-23.90333 0.0776,-35.82814 1.59961,-10.92706 12.25318,-19.66607 23.34521,-18.46109 12.13351,0.1019 24.31424,-0.21248 36.42645,0.11989 10.96181,1.55796 19.40504,12.33803 18.44925,23.32032 -0.0724,11.83052 0.14493,23.68494 -0.10895,35.50048 -1.11501,11.44486 -12.26397,20.63302 -23.72453,19.33296 -12.00108,-0.0767 -24.0274,0.26066 -36.01652,-0.15145 z"
           id="path4213"
           inkscape:connector-curvature="0" />
        <path
           inkscape:connector-curvature="0"
           id="path4215"
           d="m 91.348042,208.25087 c -11.1817,-1.50193 -19.81424,-12.60845 -18.44856,-23.83297 0.0303,-11.93746 -0.11134,-23.90333 0.0777,-35.82814 1.59961,-10.92707 12.25318,-19.66607 23.34521,-18.46109 12.133508,0.1019 24.314238,-0.21248 36.426458,0.11989 10.96179,1.55796 19.40502,12.33803 18.44923,23.32032 -0.0724,11.83052 0.14494,23.68494 -0.10895,35.50048 -1.11501,11.44486 -12.26397,20.63302 -23.72452,19.33296 -12.00108,-0.0767 -24.0274,0.26066 -36.016518,-0.15145 z"
           style="fill:#f5ba00" />
        <path
           style="fill:#f5ba00;fill-opacity:1;stroke:none;stroke-opacity:1"
           d="m 197.18129,127.74036 a 46.6871,46.6871 0 0 1 -46.6871,46.68711 46.6871,46.6871 0 0 1 -46.6871,-46.68711 46.6871,46.6871 0 0 1 46.6871,-46.687097 46.6871,46.6871 0 0 1 46.6871,46.687097 z"
           id="path4219"
           inkscape:connector-curvature="0" />
        <path
           style="fill:#fefefe"
           d="m 146.52282,195.71273 c -15.28413,-1.28973 -27.43144,-6.48281 -38.67649,-16.53453 -10.142298,-9.06599 -17.110768,-20.267 -20.266018,-32.57533 -2.2856,-8.91586 -2.7442,-19.34584 -1.26815,-28.84157 1.61086,-10.36301 5.82054,-19.95704 12.44217,-28.356176 3.119198,-3.956524 7.408618,-8.264406 11.424948,-11.474125 9.93694,-7.94127 20.76321,-12.271666 33.23163,-13.292297 1.9893,-0.162838 8.46601,-0.163853 10.55568,-0.0017 3.77125,0.292725 7.56464,0.839934 8.94134,1.289817 2.93773,0.960008 4.96908,2.799897 6.53405,5.918199 0.77696,1.548162 1.01734,2.733018 1.01137,4.985439 -0.006,2.117379 -0.22279,3.367879 -0.85518,4.9242 -0.93586,2.303156 -3.04608,4.37922 -5.70371,5.611385 -2.2553,1.045629 -4.13567,1.221707 -7.7184,0.72275 -3.64588,-0.507752 -6.46872,-0.652022 -9.20055,-0.470221 -5.76851,0.383888 -10.454,1.665049 -15.48068,4.232909 -6.47907,3.309807 -12.76548,9.09506 -16.87142,15.52641 -1.16473,1.82437 -2.83309,5.18664 -3.58003,7.21487 -3.25691,8.84385 -3.43762,18.85913 -0.50463,27.96867 1.28021,3.9762 3.20524,7.83068 5.62715,11.26719 3.04051,4.31426 7.74982,8.94387 12.06656,11.86235 8.34778,5.64381 18.50275,8.10762 28.70817,6.96523 7.90913,-0.88535 14.80756,-3.75198 21.01873,-8.73432 1.69766,-1.36179 5.59102,-5.27293 6.97573,-7.0076 3.93002,-4.92319 6.8124,-10.85909 7.94335,-16.35845 1.07443,-5.22453 1.17048,-9.13369 0.37192,-15.13829 -0.36639,-2.75499 -0.29779,-5.13473 0.18971,-6.58118 0.99271,-2.9454 3.11848,-5.55785 5.477,-6.73091 0.92521,-0.46018 2.51954,-0.93577 3.73057,-1.11285 1.46671,-0.21446 4.01675,-0.0937 5.14534,0.24363 2.17818,0.65108 4.59938,2.23569 5.84615,3.82615 1.46272,1.8659 1.95398,3.29219 2.47223,7.17752 0.65243,4.89126 0.55335,17.41238 -0.17036,21.52818 -2.13375,12.13486 -7.92357,23.05151 -17.33228,32.67979 -9.25086,9.46675 -19.7911,15.41554 -31.8903,17.99847 -4.77032,1.01837 -7.50865,1.28515 -13.71777,1.33641 -2.82929,0.0234 -5.74432,-0.008 -6.47783,-0.0701 z"
           id="path4279"
           inkscape:connector-curvature="0" />
      </g>
      <g
         id="g5038">
        <g
           id="g3402"
           transform="translate(102.27215,-4.2044063)">
          <path
             inkscape:connector-curvature="0"
             d="m 300.14852,178.22317 c 4.50455,-4.44686 8.21163,-8.116 8.23799,-8.15365 0.0866,-0.12369 -0.52072,-0.49879 -1.40184,-0.86579 -2.34384,-0.97631 -4.26419,-1.1754 -6.87253,-0.71249 -1.59356,0.28302 -2.75795,0.68847 -3.87617,1.35051 -3.65481,2.16367 -5.83028,5.71729 -6.11824,9.99386 -0.0958,1.42387 0.33317,3.91713 0.88726,5.15858 0.48489,1.08567 0.66165,1.37406 0.82217,1.34112 0.0716,-0.0147 3.81652,-3.66523 8.32107,-8.11209 z m 3.73643,20.1301 c -8.11619,0.68944 -15.49122,-3.80579 -18.58082,-11.32538 -0.36075,-0.878 -0.46717,-1.3094 -0.82175,-3.33124 -0.35619,-2.02005 -0.40175,-2.46846 -0.36415,-3.44325 0.19178,-4.97812 2.00041,-9.27213 5.34045,-12.67959 0.96742,-0.98691 3.10977,-2.6074 4.26743,-3.22782 4.13239,-2.21475 9.20693,-2.69132 13.7875,-1.29491 2.47729,0.75526 4.86113,2.07762 6.71247,3.72359 1.28622,1.14357 1.56875,1.54283 1.72691,2.43984 0.15545,0.88157 -0.0643,1.75174 -0.60321,2.38904 -0.20183,0.23861 -4.60589,4.61787 -9.7867,9.73165 -5.18091,5.11378 -9.42766,9.35204 -9.43729,9.41835 -0.0412,0.28471 2.36937,1.25008 3.7449,1.49962 2.57797,0.46764 5.7186,-0.0229 7.96152,-1.2435 2.24782,-1.22331 4.7322,-3.8405 5.99098,-6.31127 0.54057,-1.06099 1.11044,-2.85131 1.22114,-3.83656 0.0365,-0.32838 0.0763,-1.05372 0.0876,-1.61177 0.0113,-0.55802 0.0469,-1.14844 0.0791,-1.31201 0.0864,-0.43906 0.6157,-1.22982 1.09908,-1.64192 0.37127,-0.31654 0.5333,-0.38065 1.30155,-0.515 1.008,-0.1757 1.47639,-0.0768 2.23282,0.47398 0.98585,0.71793 1.27922,1.56344 1.24646,3.59359 -0.0795,4.9398 -2.32,9.62605 -6.48829,13.571 -3.00734,2.84626 -6.8231,4.60274 -10.71772,4.93356 z"
             style="fill:#64b1ea;fill-opacity:1"
             id="path5433" />
          <path
             style="fill:#64b1ea;fill-opacity:1"
             d="m 274.13715,198.33805 c -2.4292,-0.6885 -2.0331,-3.4411 -2.0604,-5.4014 -0.095,-4.89739 0.044,-9.80413 -0.2336,-14.6949 -0.7167,-4.8905 -4.7111,-9.76229 -9.9256,-9.86233 -5.334,-0.50623 -9.9179,4.13837 -10.8162,9.15046 -0.5432,4.27506 -0.2588,8.60616 -0.3353,12.90707 -0.035,1.9095 0.067,3.8498 -0.052,5.7405 -0.6278,2.312 -4.0647,2.9549 -5.3557,0.8762 -0.866,-1.0898 -0.3946,-2.5181 -0.5135,-3.7933 0,-13.63053 0,-27.26108 0,-40.89165 0.5586,-2.2442 3.6906,-3.07234 5.1955,-1.25826 1.1201,1.10199 0.6122,2.68579 0.7243,4.0695 0.05,3.69037 -0.1316,7.40182 0.1417,11.07518 2.2337,-1.69052 4.7056,-3.20032 7.512,-3.69814 4.8522,-0.90231 10.1231,0.49413 13.6566,4.00115 3.9607,3.55769 6.0282,8.87884 5.8925,14.16243 0.01,5.15701 0.1416,10.32529 -0.1239,15.47529 -0.3097,1.6401 -2.1609,2.5132 -3.7068,2.1422 z"
             id="path5435"
             inkscape:connector-curvature="0" />
          <path
             inkscape:connector-curvature="0"
             d="m 345.3539,192.33867 c 2.51,-0.3076 4.5926,-1.312 6.4756,-3.12298 2.6787,-2.57627 3.853,-5.52414 3.7144,-9.32443 -0.087,-2.39111 -0.6318,-4.17783 -1.8458,-6.0551 -2.459,-3.80226 -6.5726,-5.8138 -10.9981,-5.37793 -2.5235,0.24856 -4.5307,1.11859 -6.4308,2.78757 -3.1514,2.76797 -4.6312,6.79173 -4.0227,10.93833 0.4008,2.73081 1.4889,4.87909 3.4799,6.87008 2.5726,2.57256 5.9723,3.73236 9.6275,3.28446 z m -3.6158,5.9724 c -2.4801,-0.2849 -5.0022,-1.1533 -7.013,-2.4145 -2.6868,-1.6853 -5.3574,-4.6146 -6.7683,-7.42379 -2.0285,-4.03888 -2.3972,-9.23846 -0.9736,-13.72968 0.8801,-2.7766 2.4462,-5.21576 4.8128,-7.49581 3.2631,-3.14389 6.8518,-4.67833 11.3155,-4.83833 4.4507,-0.15954 8.2531,1.05984 11.5381,3.70018 0.386,0.31026 0.7445,0.56411 0.7968,0.56411 0.052,0 0.1215,-0.44392 0.1538,-0.98649 0.069,-1.15045 0.3089,-1.79577 0.8942,-2.40228 0.6512,-0.67477 1.094,-0.85324 2.1171,-0.85324 0.7123,0 0.9748,0.0452 1.31,0.22566 0.5632,0.30314 1.1472,0.92632 1.4068,1.50107 0.2112,0.4674 0.2131,0.61283 0.2143,16.2445 l 0,15.7729 -0.2451,0.524 c -0.3323,0.7104 -1.0586,1.3587 -1.7532,1.565 -1.2036,0.3575 -2.1793,0.1121 -3.0322,-0.7624 -0.6811,-0.6983 -0.8214,-1.0691 -0.9086,-2.4009 -0.035,-0.5331 -0.1019,-0.9694 -0.1489,-0.9694 -0.047,0 -0.6177,0.4013 -1.2684,0.8918 -1.2536,0.9449 -3.5162,2.1494 -4.7987,2.5547 -2.3257,0.7348 -5.2207,1.0121 -7.6507,0.7329 z"
             style="fill:#64b1ea;fill-opacity:1"
             id="path5437" />
          <path
             inkscape:connector-curvature="0"
             id="path5439"
             d="m 375.05536,198.28929 c -0.6193,-0.2214 -1.141,-0.5914 -1.466,-1.0401 -0.6583,-0.9088 -0.6177,0.601 -0.6177,-22.97238 0,-24.07455 -0.065,-22.14053 0.7743,-23.07401 0.6542,-0.72755 1.2943,-1.02282 2.2126,-1.02054 1.1804,0.003 2.1309,0.58267 2.6995,1.64636 l 0.2349,0.43951 0.027,21.84768 c 0.031,24.78638 0.1169,22.45848 -0.8661,23.44148 -0.4037,0.4037 -0.6896,0.5879 -1.1034,0.7108 -0.6681,0.1984 -1.3773,0.2063 -1.8953,0.021 z"
             style="fill:#64b1ea;fill-opacity:1" />
          <path
             inkscape:connector-curvature="0"
             id="path5441"
             d="m 396.32927,198.27955 c -0.6593,-0.203 -1.4651,-0.9461 -1.7789,-1.6404 l -0.2501,-0.5533 -0.052,-13.83404 -0.052,-13.83403 -2.6724,-0.0524 c -2.9763,-0.0584 -3.0819,-0.0802 -3.8827,-0.80205 -1.2235,-1.10308 -1.2788,-3.06142 -0.1203,-4.26358 0.7977,-0.82781 0.8913,-0.84932 3.9505,-0.90817 l 2.7249,-0.0524 0.052,-4.92575 c 0.051,-4.76086 0.06,-4.94204 0.2777,-5.41299 0.52,-1.12495 1.5822,-1.80664 2.814,-1.80604 1.1671,0 2.1044,0.60287 2.6421,1.69784 l 0.2924,0.59545 0.052,4.92574 0.052,4.92575 2.7249,0.0524 c 3.0593,0.0589 3.1529,0.0804 3.9506,0.90817 0.5745,0.59617 0.8133,1.20662 0.8133,2.07872 0,0.8721 -0.2388,1.48258 -0.8133,2.07875 -0.7977,0.82778 -0.8913,0.84932 -3.9506,0.90816 l -2.7249,0.0524 -0.052,13.83403 -0.052,13.83404 -0.2471,0.5464 c -0.6419,1.4197 -2.1929,2.1106 -3.6977,1.6473 z"
             style="fill:#64b1ea;fill-opacity:1" />
          <path
             inkscape:connector-curvature="0"
             id="path5443"
             d="m 443.283,198.31693 c -0.8154,-0.248 -1.4805,-0.845 -1.876,-1.6837 l -0.2718,-0.5764 -0.059,-9.01309 -0.059,-9.01308 -0.2705,-0.99564 c -0.6309,-2.32196 -1.5451,-3.95116 -3.1646,-5.63934 -1.0212,-1.06449 -1.8415,-1.66677 -3.0261,-2.2219 -2.4594,-1.15249 -5.5716,-1.17788 -7.9801,-0.0651 -3.5268,1.62944 -6.076,5.3783 -6.5504,9.63277 -0.071,0.63301 -0.1127,4.01792 -0.1127,9.06552 0,9.20676 0.048,8.68726 -0.8864,9.62156 -0.6741,0.6741 -1.3655,0.9314 -2.3013,0.8563 -1.0992,-0.088 -1.9451,-0.6393 -2.4552,-1.5992 l -0.2784,-0.524 -0.027,-21.74268 c -0.024,-19.0982 -0.01,-21.80861 0.1304,-22.28494 0.2102,-0.72292 0.9188,-1.50827 1.6492,-1.82775 0.6602,-0.28884 1.7088,-0.32091 2.3024,-0.0704 0.5127,0.2164 1.3049,0.95733 1.5872,1.4845 0.2254,0.42104 0.2272,0.4719 0.256,7.47193 0.021,4.97562 0.062,7.04802 0.1426,7.04802 0.062,0 0.3324,-0.18247 0.5998,-0.40547 1.9646,-1.63856 4.4304,-2.81383 6.9972,-3.33508 1.4103,-0.28638 4.6351,-0.25785 6.0851,0.0539 3.1488,0.67687 5.4599,1.96939 7.8929,4.41426 1.7112,1.71951 2.5993,2.93835 3.5553,4.87941 0.7609,1.54493 1.1301,2.56479 1.4605,4.03492 0.4659,2.07285 0.4864,2.5615 0.4864,11.58075 l 0,8.59383 -0.2501,0.5533 c -0.5968,1.3207 -2.2506,2.11 -3.5759,1.7069 z"
             style="fill:#64b1ea;fill-opacity:1" />
        </g>
        <g
           id="g3474"
           transform="translate(14.774193,90.105548)">
          <path
             inkscape:connector-curvature="0"
             id="path3428"
             d="m 336.32411,32.693301 c 10.5374,-1.58256 18.8606,-11.90778 18.115,-22.557541 0.3511,-11.60491 -10.194,-22.31419 -21.8617,-21.82878 -11.3665,-0.27104 -21.4102,9.93615 -21.6539,21.16887 -0.4896,7.730241 3.2998,15.469571 9.7311,19.792921 4.5108,3.15705 10.2581,4.34174 15.6695,3.42453 z m -7.9281,11.19073 c -7.8085,-0.93765 -15.0362,-5.02321 -20.1906,-10.92024 -9.9872,-10.69317 -11.2102,-28.151051 -3.297,-40.361141 5.1678,-7.86775 13.4541,-14.023 22.9631,-15.17137 9.0611,-1.35724 18.6356,1.17057 25.6196,7.1651 1.9864,0.6385 0.3606,-4.52198 2.507,-5.59798 2.344,-2.85856 7.2265,-2.35284 8.9432,0.93594 1.2397,1.71618 0.5489,3.8826 0.7251,5.84217 -0.042,17.70763 0.1086,35.417251 -0.1197,53.123281 0.2514,4.20401 -5.3625,6.70357 -8.5767,4.21674 -2.8132,-1.17471 -1.7906,-5.8483 -3.1743,-6.75653 -6.0471,5.26595 -14.0785,8.01388 -22.0788,7.72009 -1.1091,-0.0131 -2.2187,-0.0689 -3.3209,-0.19606 z"
             style="fill:#f5bb04" />
          <path
             inkscape:connector-curvature="0"
             id="path3430"
             d="m 378.7919,43.830091 c -2.4072,-0.78637 -4.0086,-3.2844 -3.7189,-5.79942 -0.1826,-18.92356 -0.025,-37.848611 -0.023,-56.772841 1.0201,-2.98383 4.4482,-5.0485 7.5071,-3.76787 2.6732,0.87948 3.7346,3.82768 3.5637,6.41952 1.3944,0.76102 3.6329,-2.4864 5.4845,-3.02515 4.5233,-2.70716 9.9071,-3.96239 15.1562,-3.72537 3.8203,0.62295 6.106,5.73087 3.4649,8.78382 -1.8857,2.82936 -5.5467,2.09871 -8.4077,2.79756 -8.7776,1.96954 -14.9515,10.67965 -15.498,19.4211 -0.5696,10.606351 0.021,21.244081 -0.4408,31.850111 -0.7021,3.08899 -4.136,4.75736 -7.0881,3.81854 z"
             style="fill:#f5bb04" />
          <path
             inkscape:connector-curvature="0"
             id="path3432"
             d="m 424.45757,43.830091 c -2.4072,-0.78637 -4.0086,-3.2844 -3.7189,-5.79942 -0.1585,-17.9796 -0.088,-35.961731 0.033,-53.941431 -0.4703,-2.95963 1.0761,-6.15129 4.1863,-6.81933 3.4394,-0.97839 7.0984,2.11811 6.7671,5.66741 0.01,3.25511 3.1359,-1.1747 4.6556,-1.50348 4.7061,-3.08223 10.4487,-4.52725 16.0465,-4.27488 3.8203,0.62295 6.106,5.73087 3.4649,8.78382 -1.8857,2.82936 -5.5467,2.09871 -8.4078,2.79756 -8.7775,1.96954 -14.9514,10.67965 -15.4979,19.4211 -0.5697,10.606351 0.021,21.244081 -0.4408,31.850111 -0.7021,3.08899 -4.1361,4.75736 -7.0881,3.81854 z"
             style="fill:#f5bb04" />
          <path
             inkscape:connector-curvature="0"
             id="path3434"
             d="m 491.46626,43.799681 c -11.598,-1.81499 -20.5779,-11.73334 -23.6627,-22.71368 -2.076,-7.14922 -1.2317,-14.673151 -1.4693,-22.011301 0.078,-5.98057 -0.2245,-11.98174 0.2681,-17.94633 0.6654,-3.65933 5.7063,-5.54632 8.6095,-3.11448 1.3172,1.0943 2.4351,2.68225 2.1377,4.46115 0.1348,10.68922 -0.033,21.3881 0.399,32.069131 1.0705,7.52241 5.7947,15.15676 13.2431,17.68679 5.9975,1.97213 12.9285,-0.0984 16.9434,-4.95369 4.1847,-4.55329 6.3776,-10.79065 6.0148,-16.96065 0.1098,-9.685931 0.1451,-19.372541 0.2173,-29.058791 1.1026,-3.33803 5.3941,-5.47107 8.4578,-3.30702 2.8472,1.46539 2.3556,4.90001 2.4815,7.58627 0.082,17.69537 0.062,35.393621 -0.1189,53.088211 0.4902,3.51239 -3.3891,6.2427 -6.6438,5.28521 -2.8825,-0.54073 -4.3543,-3.58037 -4.3623,-6.28459 -1.8268,0.0268 -4.106,3.06224 -6.4182,3.69691 -4.9449,2.56831 -10.6183,3.23159 -16.097,2.47686 z"
             style="fill:#f5bb04" />
          <path
             style="fill:#f5bb04"
             d="m 538.24007,43.830091 c -1.9353,-0.72131 -3.2459,-2.19455 -3.6391,-4.0907 -0.1421,-0.68549 -0.1907,-10.0118 -0.1549,-29.740111 l 0.052,-28.74145 0.4466,-0.90656 c 0.6708,-1.3616 2.1101,-2.60929 3.4641,-3.00291 3.6537,-1.06216 7.0987,1.55562 7.0987,5.3941 0,0.61762 0.085,1.17534 0.1884,1.23937 0.1036,0.064 0.67,-0.27581 1.2586,-0.75522 5.2857,-4.3053 11.394,-6.36989 18.0387,-6.09705 7.4211,0.3047 13.1956,2.91063 18.3505,8.28128 1.028,1.07108 2.384,2.67211 3.0134,3.55788 0.6293,0.88574 1.2394,1.64218 1.3557,1.68096 0.1163,0.0388 0.8808,-0.84178 1.699,-1.95679 3.3117,-4.51352 7.5075,-7.92053 11.9397,-9.69531 7.4715,-2.99168 16.522,-2.41756 23.3579,1.48175 7.3372,4.18528 13.528,12.83654 15.4114,21.53635 0.8166,3.77215 0.8544,4.72479 0.8563,21.623601 0,15.94259 -0.01,16.28827 -0.3942,17.14744 -0.4827,1.06863 -1.5686,2.22725 -2.6156,2.79089 -0.6218,0.33473 -1.1144,0.42006 -2.4357,0.42192 -1.4719,0.002 -1.7718,-0.0616 -2.6936,-0.57229 -1.112,-0.61599 -1.9777,-1.56672 -2.5216,-2.76946 -0.3097,-0.68474 -0.3478,-2.16322 -0.4514,-17.50564 -0.1088,-16.101171 -0.1291,-16.822611 -0.5184,-18.414021 -1.1704,-4.78433 -3.4526,-8.9052 -6.5503,-11.82741 -3.3676,-3.17684 -6.8518,-4.59613 -11.2322,-4.57542 -4.7255,0.0224 -8.2776,1.63501 -11.8136,5.36337 -3.8368,4.04565 -5.8353,8.76586 -6.2976,14.87461 -0.1147,1.51617 -0.206,8.950021 -0.2088,17.014601 0,13.97575 -0.015,14.34321 -0.4012,15.19885 -0.4827,1.06863 -1.5686,2.22725 -2.6156,2.79089 -1.1234,0.60474 -3.7513,0.60086 -4.8942,-0.007 -1.2899,-0.68632 -1.9669,-1.36324 -2.5492,-2.54908 l -0.5458,-1.11146 -0.1152,-16.75773 c -0.1263,-18.380701 -0.059,-17.324421 -1.3605,-21.220191 -2.1082,-6.30848 -7.0816,-11.48813 -12.5462,-13.06625 -3.9911,-1.15263 -8.7566,-0.519 -12.4069,1.6496 -1.5494,0.92044 -4.0651,3.22074 -5.3258,4.86968 -2.7706,3.62404 -4.3689,7.95826 -4.7783,12.95801 -0.1054,1.28605 -0.1948,8.914731 -0.1989,16.952591 -0.01,14.26706 -0.017,14.63513 -0.4034,15.49114 -0.4876,1.07934 -1.5801,2.23858 -2.6157,2.77532 -0.9968,0.5167 -3.2061,0.65613 -4.2473,0.26805 z"
             id="path3436"
             inkscape:connector-curvature="0" />
          <path
             inkscape:connector-curvature="0"
             id="path3438"
             d="m 264.18803,43.600861 c -9.88088,1.24519 -20.30766,-1.84017 -27.48172,-8.85591 -7.25693,-6.5511 -11.27692,-16.3716 -10.70257,-26.128522 0.17766,-9.361686 4.85007,-18.342966 12.14444,-24.154987 7.34239,-6.293516 17.67607,-8.595361 27.04866,-6.395474 4.3598,1.251147 5.01022,8.043251 0.95117,10.071033 -3.21268,1.555041 -6.79957,-0.338419 -10.16753,0.497746 -9.27041,0.831167 -17.15296,8.670635 -18.60592,17.764923 -1.35597,7.786631 1.76403,16.086731 7.8971,21.073211 8.40961,7.4009 22.63846,6.92972 30.16088,-1.52796 4.39304,-4.42908 6.46796,-10.82883 5.69216,-17.0023 -0.71897,-3.158385 0.77257,-7.018015 4.25839,-7.615976 3.30507,-0.758695 6.71471,1.93437 6.70321,5.336503 1.35897,8.990113 -1.03597,18.604643 -7.19426,25.414813 -5.24877,6.24633 -12.55472,10.53227 -20.70401,11.5229 z"
             style="fill:#f5bb04" />
        </g>
      </g>
    </g>
  </g>
</svg>
