<?xml version="1.0" encoding="utf-8"?>
<!-- Generator: Adobe Illustrator 15.0.0, SVG Export Plug-In . SVG Version: 6.00 Build 0)  -->
<!DOCTYPE svg PUBLIC "-//W3C//DTD SVG 1.1//EN" "http://www.w3.org/Graphics/SVG/1.1/DTD/svg11.dtd">
<svg version="1.1" id="Layer_1" xmlns="http://www.w3.org/2000/svg" xmlns:xlink="http://www.w3.org/1999/xlink" x="0px" y="0px"
	 width="900px" height="200px" viewBox="0 0 900 200" enable-background="new 0 0 900 200" xml:space="preserve">
<path fill="none" stroke="#000000" stroke-width="3" stroke-miterlimit="10" d="M879.3,94.7c0,18.6-15.069,33.67-33.67,33.67
	c-14.149,0-26.26-8.72-31.229-21.08H610.48c-4.98,12.36-17.091,21.08-31.24,21.08c-14.141,0-26.25-8.72-31.23-21.08H344.92
	c-4.98,12.36-17.09,21.08-31.23,21.08c-14.15,0-26.26-8.72-31.24-21.08H78.18c-5.08,12.17-17.09,20.729-31.1,20.729
	c-18.59,0-33.67-15.079-33.67-33.68c0-18.59,15.08-33.67,33.67-33.67c14.29,0,26.5,8.9,31.39,21.44h203.98
	c4.98-12.36,17.09-21.08,31.24-21.08c14.14,0,26.25,8.72,31.23,21.08h203.09c4.98-12.36,17.09-21.08,31.23-21.08
	c14.149,0,26.26,8.72,31.24,21.08H814.4c4.97-12.36,17.08-21.08,31.229-21.08C864.23,61.03,879.3,76.1,879.3,94.7z"/>
</svg>
